HIERARCHY
ROOT Hips
{
	OFFSET -11.342555 113.460480 -2.947132
	CHANNELS 6 Xposition Yposition Zposition Xrotation Yrotation Zrotation
	JOINT Chest
	{
		OFFSET -2.619329 13.296394 1.580881
		CHANNELS 3 Xrotation Yrotation Zrotation
		JOINT Chest2
		{
			OFFSET -1.324987 21.353874 1.150284
			CHANNELS 3 Xrotation Yrotation Zrotation
			JOINT Chest3
			{
				OFFSET 3.844462 14.415405 -0.486137
				CHANNELS 3 Xrotation Yrotation Zrotation
				JOINT Neck
				{
					OFFSET 2.423700 16.984756 2.063903
					CHANNELS 3 Xrotation Yrotation Zrotation
					JOINT Head
					{
						OFFSET 2.209339 10.098740 1.721077
						CHANNELS 3 Xrotation Yrotation Zrotation
						End Site
						{
							OFFSET 2.280686 10.082855 1.721139
						}
					}
				}
				JOINT LeftCollar
				{
					OFFSET -0.853909 12.893768 5.901337
					CHANNELS 3 Xrotation Yrotation Zrotation
					JOINT LeftUpArm
					{
						OFFSET 4.174059 4.707611 16.398626
						CHANNELS 3 Xrotation Yrotation Zrotation
						JOINT LeftLowArm
						{
							OFFSET -25.203909 21.495468 6.514231
							CHANNELS 3 Xrotation Yrotation Zrotation
							JOINT LeftHand
							{
								OFFSET -3.101223 29.068451 -6.808409
								CHANNELS 3 Xrotation Yrotation Zrotation
								End Site
								{
									OFFSET -0.677795 6.353088 -1.488008
								}
							}
						}
					}
				}
				JOINT RightCollar
				{
					OFFSET -1.134201 13.948044 -2.444263
					CHANNELS 3 Xrotation Yrotation Zrotation
					JOINT RightUpArm
					{
						OFFSET 6.874673 7.476807 -14.329428
						CHANNELS 3 Xrotation Yrotation Zrotation
						JOINT RightLowArm
						{
							OFFSET -18.837868 26.753098 -8.315084
							CHANNELS 3 Xrotation Yrotation Zrotation
							JOINT RightHand
							{
								OFFSET -5.934851 23.281586 17.991665
								CHANNELS 3 Xrotation Yrotation Zrotation
								End Site
								{
									OFFSET -1.297127 5.088409 3.932281
								}
							}
						}
					}
				}
			}
		}
	}
	JOINT LeftUpLeg
	{
		OFFSET 2.166619 -0.733391 9.756385
		CHANNELS 3 Xrotation Yrotation Zrotation
		JOINT LeftLowLeg
		{
			OFFSET 3.171194 -47.189270 2.665663
			CHANNELS 3 Xrotation Yrotation Zrotation
			JOINT LeftFoot
			{
				OFFSET 9.270372 -43.413597 -5.466982
				CHANNELS 3 Xrotation Yrotation Zrotation
				JOINT LeftToe
				{
					OFFSET -6.378544 -22.597326 2.869580
					CHANNELS 3 Xrotation Yrotation Zrotation
					End Site
					{
						OFFSET -17.394938 -13.042999 9.319614
					}
				}
			}
		}
	}
	JOINT RightUpLeg
	{
		OFFSET -2.166581 0.733192 -9.756412
		CHANNELS 3 Xrotation Yrotation Zrotation
		JOINT RightLowLeg
		{
			OFFSET -2.512804 -46.464310 -8.874963
			CHANNELS 3 Xrotation Yrotation Zrotation
			JOINT RightFoot
			{
				OFFSET 11.168934 -42.307732 -9.267691
				CHANNELS 3 Xrotation Yrotation Zrotation
				JOINT RightToe
				{
					OFFSET -6.540561 -22.729670 -0.373808
					CHANNELS 3 Xrotation Yrotation Zrotation
					End Site
					{
						OFFSET -19.479012 -13.420885 0.063707
					}
				}
			}
		}
	}
}
MOTION
Frames: 8
Frame Time: 0.033333
-0.161344 106.130432 -1.111730 -28.802023 76.805928 18.696444 2.697039 -2.665611 1.877837 3.754513 1.270385 13.925829 -5.752650 12.739102 -5.881243 -2.257815 1.773177 13.786996 -0.000000 -0.000000 0.000003 29.188800 17.562740 -3.534575 44.758414 30.383796 -23.763721 15.426100 18.960281 40.839231 -0.000000 -0.000000 0.000001 -27.819231 -7.330111 3.482020 -37.079625 -18.536623 -23.811346 -40.644806 -37.141230 3.596093 0.000003 0.000003 0.000003 3.509323 -1.993849 8.851379 -6.154467 2.228721 -1.515762 -10.660282 -12.591903 -30.021151 -0.000000 0.000004 0.000001 2.519493 1.568271 13.037241 -3.049664 2.919174 -9.446824 7.850715 8.472655 -28.569920 -0.000000 -0.000000 0.000003 
-12.736324 97.420456 -1.115463 19.892692 44.411932 -23.285655 13.842478 2.179444 18.645646 4.050163 0.996892 7.223373 -7.697640 34.223407 -1.184428 -19.322820 -11.580231 0.615808 -0.000001 0.000001 -0.000001 29.171089 7.763098 -4.036743 54.105429 36.403105 -22.573285 -13.037546 -11.211446 22.748073 -0.000002 -0.000006 0.000001 -43.929543 9.101306 15.872120 -46.302194 -10.548418 14.221244 50.746810 31.355974 33.489374 0.000003 0.000001 0.000003 -8.472763 1.189494 -40.244410 -16.882780 -15.952341 33.861414 -5.737528 -22.122530 -46.362033 0.000001 0.000002 0.000004 -16.704264 -2.308573 7.089867 -17.999265 -5.505175 23.688238 16.558248 -34.916228 -46.382510 0.000001 -0.000001 0.000005 
-12.729215 97.424713 -1.118747 19.901793 44.072824 -23.410248 13.869123 2.202761 18.473893 4.137153 1.004289 7.465537 -7.765969 34.430731 -1.283560 -19.289945 -11.642569 0.831768 0.000001 0.000002 -0.000002 29.006700 7.556155 -3.838642 54.299102 36.464867 -22.639202 -12.638901 -10.661002 22.323804 -0.000000 -0.000005 0.000004 -44.085695 9.210381 16.113004 -46.191890 -10.375372 14.324729 50.749111 31.205840 33.301134 0.000002 0.000002 -0.000002 -8.348608 1.142810 -39.713602 -16.699210 -16.003611 34.091796 -5.815421 -22.326835 -46.750230 -0.000001 0.000004 -0.000003 -16.910877 -2.304845 6.967731 -18.266921 -5.579751 23.711980 16.304640 -34.550686 -46.584745 0.000000 -0.000000 0.000003 
-12.725743 97.416550 -1.117841 19.660489 44.534906 -23.660883 14.354315 2.361401 18.965181 3.727200 0.871731 7.033244 -7.764342 34.361425 -0.976747 -19.281788 -11.779891 1.261586 -0.000000 0.000001 -0.000002 29.346130 7.967855 -4.183901 54.116972 36.467422 -22.368084 -12.921927 -10.843736 22.330327 -0.000000 0.000000 0.000003 -44.067749 9.158625 16.023663 -46.228042 -10.479955 14.324394 50.725322 31.078423 33.002159 -0.000000 -0.000000 -0.000000 -7.849021 0.992748 -39.591776 -17.044385 -16.238406 34.151513 -5.626682 -22.632445 -46.705643 0.000003 0.000000 0.000002 -16.542694 -2.346891 7.320202 -18.566428 -5.654328 23.647698 16.536489 -35.007052 -46.313887 0.000000 0.000001 0.000001 
-12.714830 97.411636 -1.122762 19.810622 44.475146 -23.611554 14.438916 2.382216 18.836352 3.730079 0.981243 6.478879 -8.078993 34.424946 -0.380621 -19.448246 -11.959291 1.117490 -0.000001 -0.000002 0.000002 29.354773 8.130042 -4.438576 54.310338 36.461882 -22.133363 -13.294907 -11.326963 22.401993 -0.000001 -0.000004 0.000001 -43.788193 9.291776 16.075441 -46.525910 -10.773313 14.048778 51.177918 31.266636 32.185194 -0.000002 -0.000000 0.000004 -7.701699 0.879723 -39.620544 -17.626797 -16.353145 33.858368 -5.331473 -23.078929 -46.409151 0.000001 0.000003 0.000003 -16.488840 -2.172295 7.080373 -18.855722 -5.803280 23.671358 16.855572 -35.270813 -45.940856 0.000001 -0.000001 0.000003 
-12.710289 97.397827 -1.134299 19.666281 44.716371 -23.974019 14.523694 2.417096 19.041155 3.737093 0.969488 6.718069 -7.999060 34.390771 -0.530567 -19.576237 -12.035244 1.225860 -0.000001 -0.000003 -0.000000 29.459019 8.099103 -4.542246 54.562242 36.323622 -22.347124 -13.325339 -11.837197 22.694878 0.000000 0.000000 0.000003 -44.140432 9.028500 15.462584 -46.981224 -10.827314 13.865375 50.625980 31.824881 34.024280 -0.000001 -0.000002 0.000003 -7.551204 0.766001 -39.306280 -17.887111 -16.433826 33.613116 -5.211207 -23.315783 -46.357092 0.000001 0.000004 0.000001 -16.206905 -2.282359 7.608090 -18.996211 -5.764253 23.659529 16.724550 -35.255497 -46.296706 0.000001 0.000000 0.000003 
-12.701021 97.387527 -1.142393 19.950694 44.377761 -23.988482 14.273055 2.353587 18.444747 4.127256 1.061621 7.243749 -8.216333 34.349923 -0.861271 -19.310114 -12.110074 1.670191 -0.000002 0.000002 -0.000002 29.551736 8.221000 -4.807294 55.860248 36.516999 -23.460305 -13.962142 -12.747740 22.787000 0.000001 -0.000004 0.000001 -44.291017 8.985230 15.146819 -47.373724 -10.755765 13.809574 50.395902 32.326080 35.275250 0.000003 0.000002 0.000005 -8.172017 0.940330 -39.609766 -17.606448 -16.339959 33.629891 -5.329619 -22.858509 -46.190773 -0.000002 0.000003 -0.000001 -16.603211 -2.230433 7.234399 -18.674296 -5.710322 24.114941 16.590915 -35.237386 -46.583068 -0.000000 -0.000001 0.000003 
-12.687408 97.388168 -1.149994 20.556651 44.288258 -24.409720 13.606423 2.139252 17.852964 4.472643 1.203081 7.689601 -8.273243 34.202838 -1.100375 -19.356678 -12.238466 2.086462 -0.000001 -0.000001 -0.000002 29.352834 8.102924 -4.570811 56.455089 36.869897 -23.972910 -14.367552 -13.039392 22.737812 0.000000 -0.000002 0.000000 -44.460392 8.846199 15.081216 -47.540231 -11.006263 13.826797 50.522073 32.367020 35.086709 0.000002 0.000005 0.000006 -8.195643 0.887932 -39.330415 -17.882707 -16.498139 33.586417 -5.355378 -23.054011 -46.386649 0.000004 0.000000 0.000002 -17.010318 -2.206747 7.125204 -19.260947 -5.799949 23.709050 16.760806 -35.424431 -46.340767 -0.000000 -0.000000 0.000003 
